<?xml version="1.0" encoding="utf-8"?>
<!-- Generator: Adobe Illustrator 22.1.0, SVG Export Plug-In . SVG Version: 6.00 Build 0)  -->
<svg version="1.1" id="Layer_1" xmlns="http://www.w3.org/2000/svg" xmlns:xlink="http://www.w3.org/1999/xlink" x="0px" y="0px"
	 viewBox="0 0 1000 171.7" style="enable-background:new 0 0 1000 171.7;" xml:space="preserve">
<style type="text/css">
	.st0{fill:url(#SVGID_1_);}
	.st1{fill:url(#SVGID_2_);}
	.st2{fill:url(#SVGID_3_);}
	.st3{fill:url(#SVGID_4_);}
	.st4{fill:url(#SVGID_5_);}
	.st5{fill:url(#SVGID_6_);}
	.st6{fill:#6600FF;}
</style>
<g>
	<g>
		<g>
			<linearGradient id="SVGID_1_" gradientUnits="userSpaceOnUse" x1="923.0459" y1="94.0455" x2="923.0459" y2="168.3354">
				<stop  offset="3.030849e-02" style="stop-color:#FF00DE"/>
				<stop  offset="1" style="stop-color:#6600FF"/>
			</linearGradient>
			<polygon class="st0" points="903.5,168.3 942.6,168.3 942.6,133.1 903.5,94 			"/>
			<linearGradient id="SVGID_2_" gradientUnits="userSpaceOnUse" x1="923.0315" y1="3.5509" x2="923.0315" y2="77.8377">
				<stop  offset="0" style="stop-color:#FFFF00"/>
				<stop  offset="0.9457" style="stop-color:#FF00DE"/>
			</linearGradient>
			<polygon class="st1" points="903.5,3.6 942.6,3.6 942.6,77.8 903.5,38.8 			"/>
			<linearGradient id="SVGID_3_" gradientUnits="userSpaceOnUse" x1="865.6432" y1="3.5345" x2="865.6432" y2="168.3354">
				<stop  offset="0" style="stop-color:#FFFF00"/>
				<stop  offset="0.501" style="stop-color:#FF00DE"/>
				<stop  offset="1" style="stop-color:#6600FF"/>
			</linearGradient>
			<polygon class="st2" points="846.1,168.3 885.2,168.3 885.2,75.7 851,41.5 878.7,13.9 885.2,20.4 885.2,3.5 846.1,3.5 			"/>
			<linearGradient id="SVGID_4_" gradientUnits="userSpaceOnUse" x1="980.4632" y1="3.5509" x2="980.4632" y2="168.3506">
				<stop  offset="0" style="stop-color:#FFFF00"/>
				<stop  offset="0.501" style="stop-color:#FF00DE"/>
				<stop  offset="1" style="stop-color:#6600FF"/>
			</linearGradient>
			<polygon class="st3" points="1000,3.6 1000,168.4 960.9,168.4 960.9,151.4 967.5,158.1 995.2,130.4 960.9,96.1 960.9,3.6 			"/>
		</g>
		<linearGradient id="SVGID_5_" gradientUnits="userSpaceOnUse" x1="894.3445" y1="20.4268" x2="894.3445" y2="94.0454">
			<stop  offset="0" style="stop-color:#FFFF00"/>
			<stop  offset="0.8201" style="stop-color:#FF00DE"/>
		</linearGradient>
		<polygon class="st4" points="885.2,20.4 903.5,38.8 903.5,94 885.2,75.7 		"/>
		<linearGradient id="SVGID_6_" gradientUnits="userSpaceOnUse" x1="951.7471" y1="77.8244" x2="951.7471" y2="151.4424">
			<stop  offset="0.3055" style="stop-color:#FF00DE"/>
			<stop  offset="1" style="stop-color:#6600FF"/>
		</linearGradient>
		<polygon class="st5" points="960.9,96.2 960.9,151.4 942.6,133.1 942.6,77.8 		"/>
	</g>
	<g>
		<g>
			<path class="st6" d="M61.7,53v13.4c-24.6-1.9-42.5,13.4-48.3,32.8V168H0V55.4h12v26C20.2,64.8,39.4,51.8,61.7,53z"/>
			<path class="st6" d="M124.1,52.8c42.7,0,57.2,35.4,51.4,65H81.9c1.6,28.6,25.3,40.6,50.4,40.6c13.6,0,27.2-3.5,36.8-9.1v13.1
				c-10.1,5.4-24.4,8.2-38.7,8.2c-32.8,0-61.9-18.3-61.9-58.9C68.5,73,96.9,52.8,124.1,52.8z M125,65C103,65,83,79.3,81.9,106h81.9
				C165.6,90.1,156.7,65,125,65z"/>
			<path class="st6" d="M211.6,84c-4.9,0-9.4-3.1-9.4-9.2c0-5.9,4.5-9.2,9.4-9.2c5.2,0,9.4,3.3,9.4,9.2C221,80.9,216.8,84,211.6,84z
				 M211.6,169.9c-4.9,0-9.4-3.3-9.4-9.2c0-5.9,4.5-9.1,9.4-9.1c5.2,0,9.4,3.3,9.4,9.1C221,166.6,216.8,169.9,211.6,169.9z"/>
			<path class="st6" d="M401.8,3.8V168h-54v-58.4h-44.6V168h-54.2V3.8h54.2v58.4h44.6V3.8H401.8z"/>
			<path class="st6" d="M480.9,3.8V168h-54.2V3.8H480.9z"/>
			<path class="st6" d="M589.7,0c19.2,0,38,3.8,53,9.9v48.3c-11.3-7-28.4-11-43.2-11c-23.9,0-45,10.8-45,38.7c0,31,23,37.5,35,37.5
				c2.6,0,4.7-0.2,6.6-0.5V76.2h50.7v84.5c-17.8,7-37.1,11-55.8,11c-47.4,0-92-27.4-92-85.9C498.9,25.6,543.7,0,589.7,0z"/>
			<path class="st6" d="M821.3,3.8V168h-54v-58.4h-44.6V168h-54.2V3.8h54.2v58.4h44.6V3.8H821.3z"/>
		</g>
	</g>
</g>
</svg>
